<svg width="200" height="200" xmlns="http://www.w3.org/2000/svg">

    <path d="M19.94 43.50Q19.64 43.23 19.64 43.50L19.64 41.03Q19.94 40.73 19.64 40.73L20.53 40.73Q21.73 40.41 21.38 40.73Q22.09 39.17 22.09 40.09L22.09 25.50Q22.36 25.23 22.09 25.23L24.91 25.23Q25.16 25.50 25.16 25.23L25.16 39.11Q24.02 42.47 25.16 41.44Q20.70 43.50 22.89 43.50L19.94 43.50M22.36 22.72Q22.09 22.45 22.09 22.72L22.09 20.05Q22.36 19.77 22.09 19.77L24.91 19.77Q25.16 20.05 25.16 19.77L25.16 22.45Q24.91 22.72 25.16 22.72L22.36 22.72"/>
</svg>