<svg width="200" height="200" xmlns="http://www.w3.org/2000/svg">

    <path d="M19.38 255.00Q16.41 252.34 16.41 255.00L16.41 230.31Q19.38 227.34 16.41 227.34L25.31 227.34Q37.34 224.06 33.75 227.34Q40.94 211.72 40.94 220.94L40.94 75.00Q43.59 72.34 40.94 72.34L69.06 72.34Q71.56 75.00 71.56 72.34L71.56 211.09Q60.16 244.69 71.56 234.38Q27.03 255.00 48.91 255.00L19.38 255.00M43.59 47.19Q40.94 44.53 40.94 47.19L40.94 20.47Q43.59 17.66 40.94 17.66L69.06 17.66Q71.56 20.47 71.56 17.66L71.56 44.53Q69.06 47.19 71.56 47.19L43.59 47.19"/>
</svg>